<svg width="316" height="116" viewBox="0 0 316 116" fill="none" xmlns="http://www.w3.org/2000/svg">
<path d="M277.5 82H314V2H14V54.5" stroke="#2657A1" stroke-width="4"/>
<path d="M26.8203 58.36C22.687 58.36 20.6203 62.3467 20.6203 70.32V73.48C20.6203 77.2667 21.167 80.24 22.2603 82.4C23.3536 84.5333 24.967 85.6 27.1003 85.6C30.0336 85.6 32.727 82.7467 35.1803 77.04H35.9003L35.6203 85.96H35.1803C35.0203 85.6667 34.8736 85.4667 34.7403 85.36C34.607 85.2267 34.407 85.16 34.1403 85.16C33.9003 85.16 32.9403 85.3733 31.2603 85.8C29.5803 86.2 27.8736 86.4 26.1403 86.4C21.7936 86.4 18.4203 85.2267 16.0203 82.88C13.647 80.5333 12.4603 77.0133 12.4603 72.32C12.4603 67.6 13.7003 63.96 16.1803 61.4C18.687 58.84 22.047 57.56 26.2603 57.56C27.887 57.56 29.4736 57.7733 31.0203 58.2C32.5936 58.6 33.5136 58.8 33.7803 58.8C34.047 58.8 34.247 58.7467 34.3803 58.64C34.5136 58.5067 34.6603 58.2933 34.8203 58H35.2603L35.5803 66.68H34.8603C33.6603 63.9867 32.4203 61.9333 31.1403 60.52C29.887 59.08 28.447 58.36 26.8203 58.36ZM57.2666 73.64V70.68C57.2666 65.8 57.0266 62.72 56.5466 61.44C56.0132 59.9733 55.2532 59.0667 54.2666 58.72C53.7066 58.5067 53.0266 58.4 52.2266 58.4C51.4266 58.4 50.7332 58.5067 50.1466 58.72C49.5866 58.9333 49.1199 59.3067 48.7466 59.84C48.3732 60.3733 48.0666 60.9333 47.8266 61.52C47.6132 62.1067 47.4399 62.9333 47.3066 64C47.1466 65.5467 47.0666 67.8267 47.0666 70.84V73.72C47.0666 76.9733 47.1866 79.2933 47.4266 80.68C47.6932 82.04 48.0132 83.0133 48.3866 83.6C49.2132 84.9067 50.4932 85.56 52.2266 85.56C54.3332 85.56 55.6932 84.68 56.3066 82.92C56.9466 81.1333 57.2666 78.04 57.2666 73.64ZM52.1466 86.4C47.6932 86.4 44.3599 85.2 42.1466 82.8C39.9599 80.3733 38.8666 76.88 38.8666 72.32C38.8666 67.7333 40.0399 64.1333 42.3866 61.52C44.7599 58.88 48.1066 57.56 52.4266 57.56C56.7466 57.56 59.9999 58.8133 62.1866 61.32C64.3999 63.8 65.5066 67.3333 65.5066 71.92C65.5066 76.5067 64.3866 80.0667 62.1466 82.6C59.9332 85.1333 56.5999 86.4 52.1466 86.4ZM90.7484 58.76V86H85.1484L71.4284 60.12V85.24H73.6284V86H68.1484V85.24H70.3484V58.76H68.1484V58H79.1884L89.6684 78.08V58.76H87.4684V58H92.9484V58.76H90.7484ZM119.385 58L119.785 68.04H119.025C117.852 64.4933 116.812 62.08 115.905 60.8C114.999 59.4933 113.692 58.84 111.985 58.84H111.505V85.16H114.905V86H100.305V85.16H103.705V58.84H103.185C101.479 58.84 100.159 59.52 99.2253 60.88C98.292 62.2133 97.2653 64.6 96.1453 68.04H95.3853L95.7853 58H119.385ZM134.37 71.84H132.25V85.24H134.85V86H121.85V85.24H124.45V58.76H121.85V58H133.93C137.397 58 139.85 58.1867 141.29 58.56C142.757 58.9067 143.783 59.3333 144.37 59.84C145.65 60.88 146.29 62.5333 146.29 64.8C146.29 67.0667 145.73 68.6933 144.61 69.68C143.49 70.64 141.783 71.2133 139.49 71.4V71.52C141.65 71.8133 143.157 72.4533 144.01 73.44C144.863 74.4267 145.29 76.08 145.29 78.4V80.52C145.29 81.9067 145.357 82.84 145.49 83.32C145.65 83.8 145.97 84.04 146.45 84.04C146.93 84.04 147.303 83.8267 147.57 83.4C147.863 82.9467 148.13 82.0133 148.37 80.6L149.05 80.68C148.757 82.9467 148.237 84.4667 147.49 85.24C146.77 86.0133 145.317 86.4 143.13 86.4C140.943 86.4 139.383 85.8933 138.45 84.88C137.543 83.84 137.09 81.9067 137.09 79.08V76.16C137.09 74.6667 136.89 73.5733 136.49 72.88C136.117 72.1867 135.41 71.84 134.37 71.84ZM132.25 58.76V71.08H133.53C135.05 71.08 136.17 70.6133 136.89 69.68C137.637 68.7467 138.01 67.2267 138.01 65.12V63.96C138.01 61.8533 137.65 60.4667 136.93 59.8C136.237 59.1067 135.117 58.76 133.57 58.76H132.25ZM169.142 73.64V70.68C169.142 65.8 168.902 62.72 168.422 61.44C167.888 59.9733 167.128 59.0667 166.142 58.72C165.582 58.5067 164.902 58.4 164.102 58.4C163.302 58.4 162.608 58.5067 162.022 58.72C161.462 58.9333 160.995 59.3067 160.622 59.84C160.248 60.3733 159.942 60.9333 159.702 61.52C159.488 62.1067 159.315 62.9333 159.182 64C159.022 65.5467 158.942 67.8267 158.942 70.84V73.72C158.942 76.9733 159.062 79.2933 159.302 80.68C159.568 82.04 159.888 83.0133 160.262 83.6C161.088 84.9067 162.368 85.56 164.102 85.56C166.208 85.56 167.568 84.68 168.182 82.92C168.822 81.1333 169.142 78.04 169.142 73.64ZM164.022 86.4C159.568 86.4 156.235 85.2 154.022 82.8C151.835 80.3733 150.742 76.88 150.742 72.32C150.742 67.7333 151.915 64.1333 154.262 61.52C156.635 58.88 159.982 57.56 164.302 57.56C168.622 57.56 171.875 58.8133 174.062 61.32C176.275 63.8 177.382 67.3333 177.382 71.92C177.382 76.5067 176.262 80.0667 174.022 82.6C171.808 85.1333 168.475 86.4 164.022 86.4ZM179.863 58H194.263V58.88H190.023V85.12H191.463C193.73 85.12 195.53 84.4267 196.863 83.04C198.223 81.6533 199.597 79.52 200.983 76.64H201.823L201.063 86H179.863V85.12H182.223V58.88H179.863V58ZM203.692 58H224.492L224.892 65.92H224.172C223.052 63.2267 221.878 61.3867 220.652 60.4C219.425 59.3867 217.625 58.88 215.252 58.88H213.852V71.24H215.212C216.465 71.24 217.518 70.7733 218.372 69.84C219.225 68.88 219.825 67.6 220.172 66H220.772V77.84H220.092C219.612 75.84 218.958 74.4133 218.132 73.56C217.332 72.7067 216.225 72.28 214.812 72.28H213.852V85.12H215.372C217.825 85.12 219.905 84.3867 221.612 82.92C223.345 81.4533 224.532 79.5733 225.172 77.28H225.972L225.652 86H203.692V85.12H206.052V58.88H203.692V58ZM252.893 72C252.893 72.6667 252.613 73.5733 252.053 74.72C252.159 75.04 252.213 75.48 252.213 76.04C252.213 78.6267 250.773 81.2 247.893 83.76C245.706 85.68 243.626 87.0267 241.653 87.8C239.679 88.6 237.399 89 234.813 89C233.053 89 231.586 88.4133 230.413 87.24C229.266 86.0667 228.693 84.5867 228.693 82.8C228.693 80.4267 229.626 78.08 231.493 75.76C233.359 73.4133 235.693 71.52 238.493 70.08C241.319 68.64 244.066 67.92 246.733 67.92C248.599 67.92 250.093 68.2933 251.213 69.04C252.333 69.76 252.893 70.7467 252.893 72ZM251.933 72.32C251.933 71.1733 251.453 70.2667 250.493 69.6C249.559 68.9067 248.306 68.56 246.733 68.56C244.333 68.56 241.906 69.2133 239.453 70.52C236.999 71.8 234.959 73.5333 233.333 75.72C231.706 77.9067 230.893 80.1467 230.893 82.44C230.893 84.2 231.399 85.56 232.413 86.52C233.453 87.48 234.866 87.96 236.653 87.96C238.466 87.96 240.386 87.4933 242.413 86.56C244.439 85.6533 246.239 84.3333 247.812 82.6C249.386 80.84 250.279 78.9467 250.493 76.92C249.133 78.44 247.319 79.8 245.053 81C244.946 81.0533 244.866 81.08 244.813 81.08C244.786 81.08 244.773 81.0667 244.773 81.04C244.773 81.0667 245.146 80.7733 245.893 80.16C247.919 78.4533 249.439 76.9733 250.453 75.72C250.266 74.68 249.759 73.7733 248.932 73C248.133 72.2 247.133 71.6267 245.933 71.28C245.479 71.1733 244.653 71.0933 243.453 71.04C242.279 70.96 241.639 70.8933 241.533 70.84L241.653 70.76C242.586 70.4667 243.666 70.32 244.893 70.32C246.146 70.32 247.439 70.64 248.773 71.28C250.106 71.8933 251.066 72.72 251.653 73.76C251.839 73.28 251.933 72.8 251.933 72.32ZM268.845 68.64C268.845 68.4 268.512 68.28 267.845 68.28C266.245 68.28 264.525 68.5733 262.685 69.16C260.845 69.72 259.259 70.5067 257.925 71.52C256.619 72.5333 255.965 73.5467 255.965 74.56C255.965 75.5467 257.125 77.2533 259.445 79.68C261.765 82.1067 262.925 83.9333 262.925 85.16C262.925 86.04 262.485 86.7733 261.605 87.36C260.725 87.9467 259.672 88.24 258.445 88.24H257.445C254.885 88.24 253.099 87.4533 252.085 85.88L252.165 85.64C253.312 86.1733 254.539 86.44 255.845 86.44C257.152 86.44 258.445 86.1867 259.725 85.68C261.032 85.1733 261.685 84.5733 261.685 83.88C261.685 83.48 261.112 82.6667 259.965 81.44C257.752 79.12 256.365 77.5467 255.805 76.72C255.272 75.8933 255.005 74.9067 255.005 73.76C255.005 70.8 257.765 68.6 263.285 67.16C265.739 66.6 267.139 66.32 267.485 66.32C267.832 66.32 268.152 66.36 268.445 66.44L269.445 67.48C269.872 67.96 270.112 68.36 270.165 68.68C270.165 69.24 269.445 69.9067 268.005 70.68C266.592 71.4267 265.725 71.8 265.405 71.8L265.365 71.6L267.405 70.2C268.365 69.56 268.845 69.04 268.845 68.64Z" fill="black"/>
</svg>
